<?xml version="1.0" standalone="no"?>
<!DOCTYPE svg PUBLIC "-//W3C//DTD SVG 20010904//EN"
 "http://www.w3.org/TR/2001/REC-SVG-20010904/DTD/svg10.dtd">
<svg version="1.0" xmlns="http://www.w3.org/2000/svg"
 width="192.000000pt" height="192.000000pt" viewBox="0 0 192.000000 192.000000"
 preserveAspectRatio="xMidYMid meet">

<g transform="translate(0.000000,192.000000) scale(0.100000,-0.100000)"
fill="#000000" stroke="none">
<path d="M873 1442 c-65 -23 -113 -60 -165 -125 -47 -60 -64 -96 -89 -192 -20
-76 -25 -245 -8 -280 9 -19 9 -18 5 3 -2 12 0 20 4 17 5 -3 11 1 14 7 3 7 4 0
0 -16 -3 -18 0 -32 8 -37 10 -7 10 -9 0 -9 -9 0 -10 -5 -2 -19 5 -11 7 -27 4
-35 -10 -26 33 -106 56 -106 16 0 19 -5 15 -23 -4 -14 -1 -28 7 -35 11 -9 13
-4 11 26 -1 20 0 30 3 20 3 -9 16 -19 30 -22 28 -7 47 0 39 15 -3 5 1 6 9 3
17 -7 22 -44 6 -44 -5 0 -7 -6 -4 -13 3 -8 -5 -18 -16 -23 l-22 -9 22 -20 c21
-19 21 -19 14 1 -5 13 0 10 15 -9 13 -15 27 -25 32 -21 6 3 15 1 22 -4 7 -5
19 -9 27 -10 8 0 35 -3 60 -7 96 -15 227 70 292 187 57 102 71 163 72 298 1
137 -10 185 -67 294 -85 162 -249 240 -394 188z m312 -324 c4 -12 -35 -73
-126 -195 -73 -97 -132 -182 -132 -189 0 -6 -8 -11 -18 -10 -18 1 -168 190
-169 212 0 6 15 28 33 49 l33 38 42 -57 c24 -31 47 -54 51 -52 4 3 57 68 117
145 l109 141 27 -33 c15 -17 30 -40 33 -49z m-500 -428 c3 -5 1 -10 -4 -10 -6
0 -11 5 -11 10 0 6 2 10 4 10 3 0 8 -4 11 -10z"/>
</g>
</svg>
